<svg width="195" height="41" viewBox="0 0 195 41" fill="none" xmlns="http://www.w3.org/2000/svg">
<path d="M195 41H0V0H180L195 41Z" fill="#00C16E"/>
<path d="M41 27.7861V12.2139H46.5905C48.593 12.2139 50.1144 12.5811 51.1549 13.3155C52.2024 14.0499 52.7262 15.1159 52.7262 16.5134C52.7262 17.3191 52.5409 18.0071 52.1704 18.5775C51.7998 19.148 51.2546 19.5686 50.5349 19.8396C51.3473 20.0535 51.9708 20.4528 52.4055 21.0374C52.8402 21.6221 53.0576 22.3351 53.0576 23.1765C53.0576 24.7023 52.573 25.8503 51.6038 26.6203C50.6418 27.3832 49.213 27.7718 47.3174 27.7861H41ZM44.752 21.1658V24.8984H47.2105C47.8875 24.8984 48.4077 24.7451 48.7712 24.4385C49.1346 24.1248 49.3163 23.6863 49.3163 23.123C49.3163 21.8253 48.6714 21.1729 47.3815 21.1658H44.752ZM44.752 18.7059H46.7081C47.5276 18.6988 48.112 18.549 48.4612 18.2567C48.8103 17.9643 48.9849 17.533 48.9849 16.9626C48.9849 16.3066 48.7961 15.836 48.4184 15.5508C48.0407 15.2585 47.4314 15.1123 46.5905 15.1123H44.752V18.7059Z" fill="white"/>
<path d="M64.5649 21.1872H58.6643V24.8984H65.6338V27.7861H54.9124V12.2139H65.6552V15.1123H58.6643V18.3957H64.5649V21.1872Z" fill="white"/>
<path d="M74.9711 23.6471C74.9711 23.098 74.7752 22.6702 74.3832 22.3636C73.9984 22.057 73.3179 21.7398 72.3416 21.4118C71.3653 21.0838 70.5671 20.7665 69.9472 20.4599C67.9304 19.4688 66.9221 18.107 66.9221 16.3743C66.9221 15.5116 67.1715 14.7522 67.6703 14.0963C68.1763 13.4332 68.8889 12.9198 69.8082 12.5561C70.7275 12.1854 71.7608 12 72.9081 12C74.0269 12 75.0282 12.1996 75.9118 12.5989C76.8026 12.9982 77.4938 13.5686 77.9855 14.3102C78.4773 15.0446 78.7231 15.8859 78.7231 16.8342H74.9818C74.9818 16.1996 74.7859 15.7077 74.3939 15.3583C74.0091 15.0089 73.4853 14.8342 72.8226 14.8342C72.1527 14.8342 71.6218 14.984 71.2299 15.2834C70.8451 15.5758 70.6527 15.9501 70.6527 16.4064C70.6527 16.8057 70.8664 17.1693 71.294 17.4973C71.7216 17.8182 72.4734 18.1533 73.5495 18.5027C74.6255 18.8449 75.5092 19.2157 76.2004 19.615C77.8822 20.5847 78.7231 21.9216 78.7231 23.6257C78.7231 24.9875 78.21 26.057 77.1838 26.8342C76.1577 27.6114 74.7502 28 72.9616 28C71.7002 28 70.5565 27.7754 69.5303 27.3262C68.5112 26.8699 67.7416 26.2496 67.2214 25.4652C66.7083 24.6738 66.4517 23.7647 66.4517 22.738H70.2144C70.2144 23.5722 70.4282 24.1889 70.8558 24.5882C71.2905 24.9804 71.9924 25.1765 72.9616 25.1765C73.5815 25.1765 74.0697 25.0446 74.426 24.7807C74.7894 24.5098 74.9711 24.1319 74.9711 23.6471Z" fill="white"/>
<path d="M92.6462 15.1123H87.9749V27.7861H84.223V15.1123H79.6373V12.2139H92.6462V15.1123Z" fill="white"/>
<path d="M106.639 23.6471C106.639 23.098 106.443 22.6702 106.051 22.3636C105.666 22.057 104.986 21.7398 104.009 21.4118C103.033 21.0838 102.235 20.7665 101.615 20.4599C99.5982 19.4688 98.5899 18.107 98.5899 16.3743C98.5899 15.5116 98.8393 14.7522 99.3381 14.0963C99.8441 13.4332 100.557 12.9198 101.476 12.5561C102.395 12.1854 103.429 12 104.576 12C105.695 12 106.696 12.1996 107.58 12.5989C108.47 12.9982 109.162 13.5686 109.653 14.3102C110.145 15.0446 110.391 15.8859 110.391 16.8342H106.65C106.65 16.1996 106.454 15.7077 106.062 15.3583C105.677 15.0089 105.153 14.8342 104.49 14.8342C103.821 14.8342 103.29 14.984 102.898 15.2834C102.513 15.5758 102.32 15.9501 102.32 16.4064C102.32 16.8057 102.534 17.1693 102.962 17.4973C103.389 17.8182 104.141 18.1533 105.217 18.5027C106.293 18.8449 107.177 19.2157 107.868 19.615C109.55 20.5847 110.391 21.9216 110.391 23.6257C110.391 24.9875 109.878 26.057 108.852 26.8342C107.825 27.6114 106.418 28 104.629 28C103.368 28 102.224 27.7754 101.198 27.3262C100.179 26.8699 99.4094 26.2496 98.8892 25.4652C98.3761 24.6738 98.1196 23.7647 98.1196 22.738H101.882C101.882 23.5722 102.096 24.1889 102.524 24.5882C102.958 24.9804 103.66 25.1765 104.629 25.1765C105.249 25.1765 105.737 25.0446 106.094 24.7807C106.457 24.5098 106.639 24.1319 106.639 23.6471Z" fill="white"/>
<path d="M121.749 21.1872H115.848V24.8984H122.817V27.7861H112.096V12.2139H122.839V15.1123H115.848V18.3957H121.749V21.1872Z" fill="white"/>
<path d="M127.879 24.8984H134.41V27.7861H124.127V12.2139H127.879V24.8984Z" fill="white"/>
<path d="M139.525 24.8984H146.057V27.7861H135.773V12.2139H139.525V24.8984Z" fill="white"/>
<path d="M157.072 21.1872H151.172V24.8984H158.141V27.7861H147.42V12.2139H158.162V15.1123H151.172V18.3957H157.072V21.1872Z" fill="white"/>
<path d="M165.234 22.2888H163.203V27.7861H159.451V12.2139H165.576C167.421 12.2139 168.864 12.6239 169.905 13.4439C170.945 14.2638 171.466 15.4225 171.466 16.9198C171.466 18.0036 171.245 18.902 170.803 19.615C170.368 20.328 169.684 20.9055 168.75 21.3476L172 27.6257V27.7861H167.981L165.234 22.2888ZM163.203 19.3904H165.576C166.288 19.3904 166.823 19.205 167.179 18.8342C167.543 18.4563 167.724 17.9323 167.724 17.262C167.724 16.5918 167.543 16.0677 167.179 15.6898C166.816 15.3048 166.281 15.1123 165.576 15.1123H163.203V19.3904Z" fill="white"/>
<path d="M35.3333 20L32.5236 16.8114L32.9151 12.5943L28.7582 11.6571L26.5818 8L22.6667 9.66857L18.7515 8L16.5752 11.6457L12.4182 12.5714L12.8097 16.8L10 20L12.8097 23.1886L12.4182 27.4171L16.5752 28.3543L18.7515 32L22.6667 30.32L26.5818 31.9886L28.7582 28.3429L32.9151 27.4057L32.5236 23.1886L35.3333 20ZM20.4673 25.3943L16.0915 21.04L17.7958 19.3486L20.4673 22.0114L27.2036 15.3029L28.9079 16.9943L20.4673 25.3943Z" fill="white"/>
</svg>
